<?xml version="1.0" standalone="no"?><!DOCTYPE svg PUBLIC "-//W3C//DTD SVG 1.1//EN" "http://www.w3.org/Graphics/SVG/1.1/DTD/svg11.dtd"><svg t="1719929662839" class="icon" viewBox="0 0 1184 1024" version="1.1" xmlns="http://www.w3.org/2000/svg" p-id="1287" xmlns:xlink="http://www.w3.org/1999/xlink" width="231.25" height="200"><path d="M790.693005 404.693536c-55.499829-53.044171-92.339564-127.626313-101.754541-209.784114-171.570957-8.619071-343.132209-3.45054-514.703165 15.491033-20.348967 2.251829-40.591166 10.060436-59.639508 21.659299 110.475526 130.610957 266.584569 289.957005 417.229043 447.53653 87.966938-93.198559 177.739223-186.877573 258.868171-274.902748z" fill="#7FBFE1" p-id="1288"></path><path d="M984.398863 488.040341a288.151659 288.151659 0 0 1-112.625441-27.390786c-96.794692 102.074844-205.100891 213.132739-307.927962 323.161781-17.72345 18.960986-45.740284 19.092019-63.536531 0.242655-159.986654-169.163829-333.493991-341.278332-457.849327-478.950522-10.662218 17.922427-18.257289 37.184303-21.329289 57.009138-25.134104 162.316133-25.134104 324.632265 0 486.948398 12.190938 73.630938 84.623166 143.437649 153.114692 151.707298a3213.544948 3213.544948 0 0 0 707.554881 0c68.486673-8.264796 140.93346-78.061801 153.124398-151.707298 18.893043-122.001592 23.585972-244.003185 14.073934-365.999924a286.647204 286.647204 0 0 1-64.594502 4.97926z" fill="#7FBFE1" p-id="1289"></path><path d="M1128.399469 57.829308c74.208455 74.203602 74.208455 194.521175 0 268.724777-74.203602 74.208455-194.516322 74.208455-268.724777 0-74.203602-74.203602-74.203602-194.516322 0-268.724777 74.203602-74.203602 194.521175-74.203602 268.724777 0" fill="#FF6677" p-id="1290"></path></svg>